HIERARCHY
ROOT hip
{
  OFFSET 0 0 0
  CHANNELS 6 Xposition Yposition Zposition Zrotation Yrotation Xrotation
  JOINT abdomen
  {
    OFFSET 0 20.6881 -0.73152
    CHANNELS 3 Zrotation Xrotation Yrotation
    JOINT chest
    {
      OFFSET 0 11.7043 -0.48768
      CHANNELS 3 Zrotation Xrotation Yrotation
      JOINT neck
      {
        OFFSET 0 22.1894 -2.19456
        CHANNELS 3 Zrotation Xrotation Yrotation
        JOINT head
        {
          OFFSET -0.24384 7.07133 1.2192
          CHANNELS 3 Zrotation Xrotation Yrotation
          JOINT leftEye
          {
            OFFSET 4.14528 8.04674 8.04672
            CHANNELS 3 Zrotation Xrotation Yrotation
            End Site
            {
              OFFSET 1 0 0
            }
          }
          JOINT rightEye
          {
            OFFSET -3.6576 8.04674 8.04672
            CHANNELS 3 Zrotation Xrotation Yrotation
            End Site
            {
              OFFSET 1 0 0
            }
          }
        }
      }
      JOINT rCollar
      {
        OFFSET -2.68224 19.2634 -4.8768
        CHANNELS 3 Zrotation Xrotation Yrotation
        JOINT rShldr
        {
          OFFSET -8.77824 -1.95073 1.46304
          CHANNELS 3 Zrotation Xrotation Yrotation
          JOINT rForeArm
          {
            OFFSET -28.1742 -1.7115 0.48768
            CHANNELS 3 Zrotation Xrotation Yrotation
            JOINT rHand
            {
              OFFSET -22.5879 0.773209 7.07136
              CHANNELS 3 Zrotation Xrotation Yrotation
              JOINT rThumb1
              {
                OFFSET -1.2192 -0.487915 3.41376
                CHANNELS 3 Zrotation Xrotation Yrotation
                JOINT rThumb2
                {
                  OFFSET -3.37035 -0.52449 3.41376
                  CHANNELS 3 Zrotation Xrotation Yrotation
                  End Site
                  {
                    OFFSET -1.78271 -1.18214 1.43049
                  }
                }
              }
              JOINT rIndex1
              {
                OFFSET -7.75947 0.938293 5.60832
                CHANNELS 3 Zrotation Xrotation Yrotation
                JOINT rIndex2
                {
                  OFFSET -2.54057 -0.884171 1.56538
                  CHANNELS 3 Zrotation Xrotation Yrotation
                  End Site
                  {
                    OFFSET -1.62519 -0.234802 1.16502
                  }
                }
              }
              JOINT rMid1
              {
                OFFSET -8.24714 1.18213 3.41376
                CHANNELS 3 Zrotation Xrotation Yrotation
                JOINT rMid2
                {
                  OFFSET -3.10165 -0.590103 1.0647
                  CHANNELS 3 Zrotation Xrotation Yrotation
                  End Site
                  {
                    OFFSET -2.48547 -0.328903 0.83742
                  }
                }
              }
              JOINT rRing1
              {
                OFFSET -8.82822 0.546677 1.51678
                CHANNELS 3 Zrotation Xrotation Yrotation
                JOINT rRing2
                {
                  OFFSET -2.60934 -0.819778 -0.0198488
                  CHANNELS 3 Zrotation Xrotation Yrotation
                  End Site
                  {
                    OFFSET -2.33842 -0.294052 0.168128
                  }
                }
              }
              JOINT rPinky1
              {
                OFFSET -8.27202 -0.0477905 -0.4584
                CHANNELS 3 Zrotation Xrotation Yrotation
                JOINT rPinky2
                {
                  OFFSET -1.82734 -0.647385 -0.700984
                  CHANNELS 3 Zrotation Xrotation Yrotation
                  End Site
                  {
                    OFFSET -1.69225 -0.51767 -0.607171
                  }
                }
              }
            }
          }
        }
      }
      JOINT lCollar
      {
        OFFSET 2.68224 19.2634 -4.8768
        CHANNELS 3 Zrotation Xrotation Yrotation
        JOINT lShldr
        {
          OFFSET 8.77824 -1.95073 1.46304
          CHANNELS 3 Zrotation Xrotation Yrotation
          JOINT lForeArm
          {
            OFFSET 28.1742 -1.7115 0.48768
            CHANNELS 3 Zrotation Xrotation Yrotation
            JOINT lHand
            {
              OFFSET 22.5879 0.773209 7.07136
              CHANNELS 3 Zrotation Xrotation Yrotation
              JOINT lThumb1
              {
                OFFSET 1.2192 -0.487915 3.41376
                CHANNELS 3 Zrotation Xrotation Yrotation
                JOINT lThumb2
                {
                  OFFSET 3.37035 -0.52449 3.41376
                  CHANNELS 3 Zrotation Xrotation Yrotation
                  End Site
                  {
                    OFFSET 1.78271 -1.18214 1.43049
                  }
                }
              }
              JOINT lIndex1
              {
                OFFSET 7.75947 0.938293 5.60832
                CHANNELS 3 Zrotation Xrotation Yrotation
                JOINT lIndex2
                {
                  OFFSET 2.54057 -0.884171 1.56538
                  CHANNELS 3 Zrotation Xrotation Yrotation
                  End Site
                  {
                    OFFSET 1.62519 -0.234802 1.16502
                  }
                }
              }
              JOINT lMid1
              {
                OFFSET 8.24714 1.18213 3.41376
                CHANNELS 3 Zrotation Xrotation Yrotation
                JOINT lMid2
                {
                  OFFSET 3.10165 -0.590103 1.0647
                  CHANNELS 3 Zrotation Xrotation Yrotation
                  End Site
                  {
                    OFFSET 2.48547 -0.328903 0.83742
                  }
                }
              }
              JOINT lRing1
              {
                OFFSET 8.82822 0.546677 1.51678
                CHANNELS 3 Zrotation Xrotation Yrotation
                JOINT lRing2
                {
                  OFFSET 2.60934 -0.819778 -0.0198488
                  CHANNELS 3 Zrotation Xrotation Yrotation
                  End Site
                  {
                    OFFSET 2.33842 -0.294052 0.168128
                  }
                }
              }
              JOINT lPinky1
              {
                OFFSET 8.27202 -0.0477905 -0.4584
                CHANNELS 3 Zrotation Xrotation Yrotation
                JOINT lPinky2
                {
                  OFFSET 1.82734 -0.647385 -0.700984
                  CHANNELS 3 Zrotation Xrotation Yrotation
                  End Site
                  {
                    OFFSET 1.69225 -0.51767 -0.607171
                  }
                }
              }
            }
          }
        }
      }
    }
  }
  JOINT rButtock
  {
    OFFSET -8.77824 4.35084 1.2192
    CHANNELS 3 Zrotation Xrotation Yrotation
    JOINT rThigh
    {
      OFFSET 0 -1.70687 -2.19456
      CHANNELS 3 Zrotation Xrotation Yrotation
      JOINT rShin
      {
        OFFSET 0 -36.8199 0.73152
        CHANNELS 3 Zrotation Xrotation Yrotation
        JOINT rFoot
        {
          OFFSET 0.73152 -45.1104 -5.12064
          CHANNELS 3 Zrotation Xrotation Yrotation
          End Site
          {
            OFFSET -1.1221 -3.69964 12.103
          }
        }
      }
    }
  }
  JOINT lButtock
  {
    OFFSET 8.77824 4.35084 1.2192
    CHANNELS 3 Zrotation Xrotation Yrotation
    JOINT lThigh
    {
      OFFSET 0 -1.70687 -2.19456
      CHANNELS 3 Zrotation Xrotation Yrotation
      JOINT lShin
      {
        OFFSET 0 -36.8199 0.73152
        CHANNELS 3 Zrotation Xrotation Yrotation
        JOINT lFoot
        {
          OFFSET -0.73152 -45.1104 -5.12064
          CHANNELS 3 Zrotation Xrotation Yrotation
          End Site
          {
            OFFSET 1.1221 -3.69964 12.103
          }
        }
      }
    }
  }
}
MOTION
Frames:	4
Frame Time:	0.00833333
10.7711 80.9776 133.594 -2.3999 5.5956 14.8193 5.31664 -17.4522 -5.61349 4.08343 6.20149 -1.9428 -3.38036 19.094 -10.6384 14.7808 -20.5881 -18.1912 -0.0 0.0 0.0 -0.0 0.0 0.0 1.68485e-13 1.50799e-13 -1.15217e-14 75.6139 11.2765 0.430793 -11.9985 -5.446 21.6106 -0.00201953 1.63233 0.22941 -1.9737e-09 2.65788e-09 -2.14788e-09 -3.41774e-09 4.59942e-09 -3.70862e-09 -1.9737e-09 2.65788e-09 -2.14789e-09 7.73091 5.47488 0.417314 -1.97371e-09 2.65788e-09 -2.14788e-09 2.90554 0.965183 0.102902 -1.9737e-09 2.65789e-09 -2.14788e-09 10.2786 0.731801 0.0259123 -1.97371e-09 2.65789e-09 -2.14788e-09 2.22167 -0.733487 -0.20892 1.68368e-13 1.50807e-13 -1.1816e-14 -82.4873 20.2138 -4.03899 10.0165 -4.15116 -17.8328 0.257092 14.287 -2.05103 -2.55426e-09 -1.22082e-09 5.62994e-10 -4.40527e-09 -2.08947e-09 1.00597e-09 -2.55427e-09 -1.22082e-09 5.63006e-10 -7.73091 5.47488 -0.417314 -2.55426e-09 -1.22083e-09 5.63e-10 -2.90554 0.965183 -0.102902 -2.55427e-09 -1.22083e-09 5.62999e-10 -10.2786 0.731801 -0.0259123 -2.55426e-09 -1.22083e-09 5.62994e-10 -2.22167 -0.733487 0.20892 -2.03217e-16 0.0 -3.88251e-19 5.74221 -41.1955 -2.71657 -0.239204 33.8795 0.128954 0.107225 -8.6587 2.39084 2.03217e-16 0.0 3.88251e-19 8.87893 -42.2257 6.57528 2.83556 74.1639 -3.30498 2.09075 14.0229 -15.652
10.7523 81.0365 134.181 -2.7003 4.9451 14.8518 5.65391 -17.5193 -5.30776 4.08323 6.28819 -1.87825 -3.38098 19.0053 -10.6189 14.7147 -20.4339 -18.1794 -0.0 0.0 0.0 -0.0 0.0 0.0 1.8505e-13 7.39436e-14 -6.57977e-14 75.1823 12.5416 1.39605 -12.4015 -5.73424 22.3897 -0.000326843 0.516227 0.0725529 -2.06789e-09 2.03838e-09 -1.88034e-09 -3.57861e-09 3.52717e-09 -3.2475e-09 -2.06788e-09 2.03838e-09 -1.88035e-09 7.73091 5.47488 0.417314 -2.06789e-09 2.03838e-09 -1.88034e-09 2.90554 0.965183 0.102902 -2.06788e-09 2.03838e-09 -1.88035e-09 10.2786 0.731801 0.0259123 -2.06789e-09 2.03838e-09 -1.88034e-09 2.22167 -0.733487 -0.20892 1.849e-13 7.39518e-14 -6.61456e-14 -82.6308 19.6936 -3.43679 9.96325 -4.1191 -17.7326 0.267549 14.5673 -2.09305 -2.11813e-09 -1.1218e-09 4.3968e-11 -3.65799e-09 -1.92536e-09 1.04274e-10 -2.11813e-09 -1.1218e-09 4.39775e-11 -7.73091 5.47488 -0.417314 -2.11813e-09 -1.1218e-09 4.39712e-11 -2.90554 0.965183 -0.102902 -2.11814e-09 -1.1218e-09 4.39712e-11 -10.2786 0.731801 -0.0259123 -2.11813e-09 -1.1218e-09 4.39648e-11 -2.22167 -0.733487 0.20892 -2.03217e-16 0.0 -3.88251e-19 5.85794 -40.7868 -2.89166 -0.232345 33.7316 0.142328 0.282832 -9.07994 3.11032 2.03217e-16 0.0 3.88251e-19 9.35037 -43.5919 6.85407 3.07743 75.0845 -3.52593 1.73572 13.3128 -14.3321
10.6861 81.0618 134.728 -2.886 4.0332 14.7995 5.62938 -17.4552 -4.99232 4.17714 6.36416 -1.79928 -3.39169 18.9747 -10.584 14.668 -20.3748 -18.1254 -0.0 0.0 0.0 -0.0 0.0 0.0 1.63507e-13 1.4844e-14 -7.74526e-14 74.7229 13.8135 2.44716 -12.806 -6.02868 23.1847 -0.00184699 -0.425889 -0.0598151 -1.65258e-09 1.11198e-09 -1.24731e-09 -2.85914e-09 1.92431e-09 -2.15407e-09 -1.65259e-09 1.11199e-09 -1.24732e-09 7.73091 5.47488 0.417314 -1.65259e-09 1.11199e-09 -1.2473e-09 2.90554 0.965183 0.102902 -1.65258e-09 1.11199e-09 -1.24731e-09 10.2786 0.731801 0.0259123 -1.65259e-09 1.11199e-09 -1.24731e-09 2.22167 -0.733487 -0.20892 1.63373e-13 1.4849e-14 -7.77877e-14 -82.7248 19.2301 -2.84637 9.9372 -4.10314 -17.6841 0.279588 14.8878 -2.14118 -1.40256e-09 -9.80853e-10 -4.59017e-10 -2.42816e-09 -1.68985e-09 -7.73954e-10 -1.40257e-09 -9.80851e-10 -4.59009e-10 -7.73091 5.47488 -0.417314 -1.40256e-09 -9.80854e-10 -4.59018e-10 -2.90554 0.965183 -0.102902 -1.40257e-09 -9.80854e-10 -4.59016e-10 -10.2786 0.731801 -0.0259123 -1.40256e-09 -9.80853e-10 -4.59023e-10 -2.22167 -0.733487 0.20892 -2.03217e-16 0.0 -3.88251e-19 5.8689 -40.3735 -2.77808 -0.22637 33.6429 0.159998 0.434508 -9.46603 3.70116 2.03217e-16 0.0 3.88251e-19 9.61374 -44.7865 7.18239 3.26517 75.7296 -3.69837 1.47888 12.7116 -13.3061
10.7425 81.0968 135.259 -2.6977 3.1047 14.7986 5.3831 -17.3079 -4.67311 4.31548 6.44074 -1.71183 -3.40914 18.9733 -10.5385 14.6202 -20.3813 -18.0449 -0.0 0.0 0.0 -0.0 0.0 0.0 1.15516e-13 -4.53228e-14 -6.64841e-14 74.2354 15.0437 3.57604 -13.2113 -6.32944 23.9938 -0.00423243 -1.24708 -0.175345 -8.83543e-10 -1.14836e-10 -2.92558e-10 -1.52794e-09 -1.98174e-10 -5.0447e-10 -8.83546e-10 -1.14832e-10 -2.92571e-10 7.73091 5.47488 0.417314 -8.83547e-10 -1.14833e-10 -2.92554e-10 2.90554 0.965183 0.102902 -8.8354e-10 -1.14833e-10 -2.92561e-10 10.2786 0.731801 0.0259123 -8.83545e-10 -1.14832e-10 -2.9256e-10 2.22167 -0.733487 -0.20892 1.15427e-13 -4.53234e-14 -6.67668e-14 -82.7747 18.8053 -2.2541 9.94053 -4.10517 -17.6903 0.294244 15.2644 -2.19796 -4.11226e-10 -7.78337e-10 -1.01403e-09 -7.22808e-10 -1.34978e-09 -1.74596e-09 -4.1123e-10 -7.78335e-10 -1.01402e-09 -7.73091 5.47488 -0.417314 -4.11222e-10 -7.78336e-10 -1.01404e-09 -2.90554 0.965183 -0.102902 -4.11233e-10 -7.78335e-10 -1.01403e-09 -10.2786 0.731801 -0.0259123 -4.11223e-10 -7.78335e-10 -1.01404e-09 -2.22167 -0.733487 0.20892 -2.03217e-16 0.0 -3.88251e-19 5.80866 -39.9448 -2.48419 -0.220533 33.5737 0.180978 0.576895 -9.82877 4.23499 2.03217e-16 0.0 3.88251e-19 9.74951 -45.8412 7.54833 3.39146 76.1244 -3.81355 1.28832 12.194 -12.4658
